<svg version="1.1" xmlns="http://www.w3.org/2000/svg" xmlns:xlink="http://www.w3.org/1999/xlink" width="83.44999694824219" height="43.59999084472656"><defs></defs><g transform="translate(-41.52497863769531,19.8699951171875)"><rect fill="rgb(255,255,255)" stroke="none" x="0" y="0" width="83.44999694824219" height="43.59999084472656" fill-opacity="0" transform="translate(41.52497863769531,-19.8699951171875)"></rect><g transform="translate(42.874977111816406,22.5) rotate(0,0,0) translate(-42.874977111816406,-22.5) matrix(1,0,0,1,42.874977111816406,22.5)"><path fill="rgb(0,0,0)" fill-opacity="1" d="M28.50-38.67L28.50-38.67Q33.90-38.42 33.90-37.57L33.90-37.57Q33.90-37.27 33.35-37.37Q32.80-37.47 32.35-37.47L32.35-37.47L28.30-37.52Q27.40-30.27 24.35-21.77L24.35-21.77L26.55-21.92Q27.60-22.02 27.70-21.82L27.70-21.82Q27.90-21.42 26.85-21.37L26.85-21.37Q25.50-21.27 24.15-21.07L24.15-21.07Q18.65-5.82 11.95-1.67L11.95-1.67Q7.35 1.23 3.60 1.23L3.60 1.23Q0.60 1.23-0.65-1.02L-0.65-1.02Q-1.35-2.17-1.35-3.12Q-1.35-4.07-1.30-4.47L-1.30-4.47Q-1.10-6.42 0.32-8.87Q1.75-11.32 4.30-13.57L4.30-13.57Q10.30-18.97 19.50-20.97L19.50-20.97Q20.15-23.87 20.15-26.37L20.15-26.37Q20.15-31.07 17.85-34.12L17.85-34.12Q17.10-35.02 16.50-35.57L16.50-35.57Q12.25-33.62 12.25-30.42L12.25-30.42Q12.25-29.62 12.60-28.92L12.60-28.92Q13.35-27.32 15.12-26.12Q16.90-24.92 19.05-24.77L19.05-24.77Q19.45-24.72 19.17-24.42Q18.90-24.12 18.50-24.17L18.50-24.17Q15.10-24.82 13.05-26.27L13.05-26.27Q10.55-28.07 10.55-30.32L10.55-30.32Q10.55-31.67 11.60-33.30Q12.65-34.92 15.40-36.32L15.40-36.32Q14.10-37.02 12.62-37.02Q11.15-37.02 9.40-35.85Q7.65-34.67 6.95-32.27L6.95-32.27Q6.50-30.77 6.50-29.62L6.50-29.62Q6.50-25.92 8.75-23.47L8.75-23.47Q10.40-21.72 12.85-21.62L12.85-21.62Q13.60-21.57 13.55-21.42Q13.50-21.27 12.80-21.32L12.80-21.32Q9.25-21.47 7.30-24.37L7.30-24.37Q5.80-26.57 5.80-29.22L5.80-29.22Q5.80-33.87 9.35-36.27L9.35-36.27Q11.25-37.52 12.92-37.52Q14.60-37.52 16.10-36.67L16.10-36.67Q17.15-37.12 18.97-37.67Q20.80-38.22 25.50-38.52L25.50-38.52L26.50-38.62Q26.85-38.92 27.05-39.12L27.05-39.12Q27.65-39.62 28.05-39.62Q28.45-39.62 28.45-39.12L28.45-39.12L28.45-38.77Q28.45-38.67 28.50-38.67ZM2.75-1.22L2.75-1.22Q1.45-1.22 1.37-1.37Q1.30-1.52 1.37-1.62Q1.45-1.72 1.82-1.67Q2.20-1.62 2.80-1.62L2.80-1.62Q5.85-1.62 9.25-4.05Q12.65-6.47 15.35-10.82Q18.05-15.17 19.30-20.12L19.30-20.12Q9.60-17.62 4.40-11.92L4.40-11.92Q2.15-9.52 0.95-7.27L0.95-7.27Q-0.35-4.92-0.35-3.37Q-0.35-1.82 0.45-0.87L0.45-0.87Q1.45 0.33 3.10 0.33L3.10 0.33Q6.80 0.33 11.30-2.77L11.30-2.77Q17.10-6.82 22.00-20.72L22.00-20.72Q21.15-20.62 19.95-20.32L19.95-20.32Q18.65-15.22 15.85-10.72Q13.05-6.22 9.47-3.72Q5.90-1.22 2.75-1.22ZM20.85-26.67L20.85-26.67Q20.85-24.12 20.15-21.12L20.15-21.12L22.25-21.47Q25.35-30.92 25.95-37.42L25.95-37.42Q21.25-37.07 19.97-36.75Q18.70-36.42 17.25-35.87L17.25-35.87Q18.10-35.02 18.50-34.47L18.50-34.47Q20.85-31.37 20.85-26.67ZM33.40-28.72L33.40-28.72Q33.75-28.72 33.75-28.50Q33.75-28.27 33.15-27.57L33.15-27.57Q31.85-25.97 30.60-26.97L30.60-26.97Q30.40-27.12 30.55-27.27L30.55-27.27Q32.30-28.72 33.40-28.72ZM29.55-16.02L29.55-16.02Q29.55-14.52 30.45-14.52L30.45-14.52Q30.95-14.52 32.92-16.15Q34.90-17.77 35.05-17.92Q35.20-18.07 35.30-18.00Q35.40-17.92 35.40-17.85Q35.40-17.77 35.35-17.67L35.35-17.67Q34.60-16.42 32.20-14.67L32.20-14.67Q30.60-13.37 29.50-13.37L29.50-13.37Q27.80-13.37 27.80-16.27L27.80-16.27Q27.80-16.82 27.90-17.85Q28.00-18.87 29.50-24.17L29.50-24.17Q29.60-24.57 30.62-24.57Q31.65-24.57 31.65-24.00Q31.65-23.42 31.27-22.50Q30.90-21.57 30.40-21.47L30.40-21.47Q30.15-21.42 29.85-18.97Q29.55-16.52 29.55-16.02ZM39.00-20.47L39.00-20.47Q37.55-18.52 36.95-17.07Q36.35-15.62 36.35-14.92Q36.35-14.22 36.80-14.22L36.80-14.22Q38.15-14.22 42.25-20.22L42.25-20.22Q43.85-22.27 43.85-20.17L43.85-20.17Q43.75-18.87 43.75-17.97L43.75-17.97Q43.75-14.17 45.35-14.17L45.35-14.17Q47.05-14.17 49.50-16.92L49.50-16.92Q49.65-17.07 49.85-16.72L49.85-16.72Q49.70-16.37 48.82-15.50Q47.95-14.62 46.65-13.92Q45.35-13.22 44.67-13.22Q44.00-13.22 43.60-13.37L43.60-13.37Q41.75-14.02 41.75-18.47L41.75-18.47Q39.75-15.32 38.85-14.47L38.85-14.47Q37.45-13.17 36.55-13.17L36.55-13.17Q36.50-13.17 36.40-13.17L36.40-13.17Q34.75-13.42 34.75-15.40Q34.75-17.37 36.02-19.80Q37.30-22.22 39.40-24.17Q41.50-26.12 43.60-26.12L43.60-26.12Q44.60-26.12 45.55-25.62L45.55-25.62Q46.40-25.12 46.40-24.05Q46.40-22.97 45.45-22.82L45.45-22.82Q45.80-23.42 45.80-23.95Q45.80-24.47 45.30-24.72Q44.80-24.97 44.40-24.97L44.40-24.97Q42.25-24.97 39.00-20.47ZM55.25-17.77L55.25-17.77Q55.25-14.62 56.35-14.62L56.35-14.62Q57.85-14.62 60.45-17.87L60.45-17.87Q60.95-18.47 61.02-18.55Q61.10-18.62 61.20-18.32L61.20-18.32L61.25-18.22Q60.85-17.22 58.82-15.22Q56.80-13.22 55.40-13.22L55.40-13.22Q54.90-13.22 54.45-13.47L54.45-13.47Q53.20-14.07 53.20-17.87L53.20-17.87Q53.20-18.47 53.30-19.55Q53.40-20.62 53.50-20.72L53.50-20.72Q53.50-20.77 53.37-20.65Q53.25-20.52 52.97-20.20Q52.70-19.87 52.40-19.52Q52.10-19.17 51.70-18.62Q51.30-18.07 50.95-17.67L50.95-17.67Q50.05-16.67 49.55-15.87L49.55-15.87Q49.40-14.07 48.25-13.37L48.25-13.37Q48.00-13.22 47.87-13.22Q47.75-13.22 47.75-14.15Q47.75-15.07 48.40-18.92Q49.05-22.77 49.60-24.22L49.60-24.22Q48.05-23.82 47.95-22.97L47.95-22.97Q47.85-22.37 47.62-22.40Q47.40-22.42 47.40-22.82L47.40-22.82Q47.40-24.37 49.95-25.12L49.95-25.12Q51.25-29.37 53.75-33.52Q56.25-37.67 59.30-39.97L59.30-39.97Q62.35-42.37 65.50-42.37L65.50-42.37Q66.85-42.37 68.15-41.82L68.15-41.82Q70.10-40.97 70.90-38.97L70.90-38.97Q71.25-38.07 71.25-37.12L71.25-37.12Q71.25-34.22 68.40-32.07L68.40-32.07Q66.40-30.52 63.05-29.00Q59.70-27.47 57.57-26.75Q55.45-26.02 51.35-24.72L51.35-24.72Q50.55-22.57 49.65-16.72L49.65-16.72Q50.35-17.77 51.85-19.70Q53.35-21.62 53.80-22.22L53.80-22.22Q54.05-23.32 54.97-24.00Q55.90-24.67 55.90-23.72L55.90-23.72Q55.90-23.47 55.57-21.42Q55.25-19.37 55.25-17.77ZM70.45-38.42L70.45-38.42Q69.50-40.92 65.70-40.92L65.70-40.92Q62.15-40.92 58.75-38.47L58.75-38.47Q57.25-37.42 55.40-34.67L55.40-34.67Q54.35-33.07 53.62-31.20Q52.90-29.32 52.32-27.70Q51.75-26.07 51.55-25.57L51.55-25.57Q54.90-26.52 60.22-29.00Q65.55-31.47 68.10-33.45Q70.65-35.42 70.65-37.32L70.65-37.32Q70.65-37.87 70.45-38.42ZM71.95-14.22L71.95-14.22Q73.45-14.22 75.85-16.92L75.85-16.92L76.15-16.72Q76.05-16.42 75.15-15.50Q74.25-14.57 72.97-13.90Q71.70-13.22 71.02-13.22Q70.35-13.22 69.95-13.37L69.95-13.37Q69.05-13.67 68.52-15.12Q68.00-16.57 67.90-17.85Q67.80-19.12 67.85-19.17L67.85-19.17Q67.45-18.57 67.12-18.00Q66.80-17.42 66.35-16.77Q65.90-16.12 65.35-15.47L65.35-15.47Q63.60-13.17 62.35-13.17L62.35-13.17Q62.25-13.17 62.20-13.17L62.20-13.17Q60.30-13.47 60.30-15.87L60.30-15.87Q60.30-19.52 63.95-24.97L63.95-24.97Q64.25-25.42 64.85-25.42Q65.45-25.42 66.00-25.32L66.00-25.32Q66.75-25.02 66.70-24.77L66.70-24.77Q65.50-23.57 64.15-21.17L64.15-21.17Q61.85-16.97 61.85-15.22L61.85-15.22Q61.85-14.27 62.47-14.27Q63.10-14.27 63.92-15.00Q64.75-15.72 65.30-16.47Q65.85-17.22 66.30-17.85Q66.75-18.47 67.40-19.50Q68.05-20.52 68.40-21.02Q68.75-21.52 69.12-21.80Q69.50-22.07 69.72-21.85Q69.95-21.62 69.92-21.00Q69.90-20.37 69.90-19.92L69.90-19.92Q69.90-14.22 71.95-14.22ZM80.10-28.72L80.10-28.72Q80.45-28.72 80.45-28.50Q80.45-28.27 79.85-27.57L79.85-27.57Q78.55-25.97 77.30-26.97L77.30-26.97Q77.10-27.12 77.25-27.27L77.25-27.27Q79.00-28.72 80.10-28.72ZM76.25-16.02L76.25-16.02Q76.25-14.52 77.15-14.52L77.15-14.52Q77.65-14.52 79.62-16.15Q81.60-17.77 81.75-17.92Q81.90-18.07 82.00-18.00Q82.10-17.92 82.10-17.85Q82.10-17.77 82.05-17.67L82.05-17.67Q81.30-16.42 78.90-14.67L78.90-14.67Q77.30-13.37 76.20-13.37L76.20-13.37Q74.50-13.37 74.50-16.27L74.50-16.27Q74.50-16.82 74.60-17.85Q74.70-18.87 76.20-24.17L76.20-24.17Q76.30-24.57 77.32-24.57Q78.35-24.57 78.35-24.00Q78.35-23.42 77.97-22.50Q77.60-21.57 77.10-21.47L77.10-21.47Q76.85-21.42 76.55-18.97Q76.25-16.52 76.25-16.02Z"></path></g></g></svg>