<svg version="1.1" xmlns="http://www.w3.org/2000/svg" xmlns:xlink="http://www.w3.org/1999/xlink" width="170" height="49"><defs></defs><g transform="translate(-83.52495574951172,19.8699951171875)"><rect fill="rgb(255,255,255)" stroke="none" x="0" y="0" width="170" height="49" fill-opacity="0" transform="translate(83.52495574951172,-19.8699951171875)"></rect><g transform="translate(85.77495574951172,25) rotate(0,0,0) translate(-85.77495574951172,-25) matrix(1,0,0,1,85.77495574951172,25)"><path fill="rgb(0,0,0)" fill-opacity="1" d="M27.60-41.17L27.60-41.17Q33.00-40.92 33.00-40.07L33.00-40.07Q33.00-39.77 32.45-39.87Q31.90-39.97 31.45-39.97L31.45-39.97L27.40-40.02Q26.50-32.77 23.45-24.27L23.45-24.27L25.65-24.42Q26.70-24.52 26.80-24.32L26.80-24.32Q27.00-23.92 25.95-23.87L25.95-23.87Q24.60-23.77 23.25-23.57L23.25-23.57Q17.75-8.32 11.05-4.17L11.05-4.17Q6.45-1.27 2.70-1.27L2.70-1.27Q-0.30-1.27-1.55-3.52L-1.55-3.52Q-2.25-4.67-2.25-5.62Q-2.25-6.57-2.20-6.97L-2.20-6.97Q-2.00-8.92-0.58-11.37Q0.85-13.82 3.40-16.07L3.40-16.07Q9.40-21.47 18.60-23.47L18.60-23.47Q19.25-26.37 19.25-28.87L19.25-28.87Q19.25-33.57 16.95-36.62L16.95-36.62Q16.20-37.52 15.60-38.07L15.60-38.07Q11.35-36.12 11.35-32.92L11.35-32.92Q11.35-32.12 11.70-31.42L11.70-31.42Q12.45-29.82 14.22-28.62Q16.00-27.42 18.15-27.27L18.15-27.27Q18.55-27.22 18.27-26.92Q18.00-26.62 17.60-26.67L17.60-26.67Q14.20-27.32 12.15-28.77L12.15-28.77Q9.65-30.57 9.65-32.82L9.65-32.82Q9.65-34.17 10.70-35.80Q11.75-37.42 14.50-38.82L14.50-38.82Q13.20-39.52 11.72-39.52Q10.25-39.52 8.50-38.35Q6.75-37.17 6.05-34.77L6.05-34.77Q5.60-33.27 5.60-32.12L5.60-32.12Q5.60-28.42 7.85-25.97L7.85-25.97Q9.50-24.22 11.95-24.12L11.95-24.12Q12.70-24.07 12.65-23.92Q12.60-23.77 11.90-23.82L11.90-23.82Q8.35-23.97 6.40-26.87L6.40-26.87Q4.90-29.07 4.90-31.72L4.90-31.72Q4.90-36.37 8.45-38.77L8.45-38.77Q10.35-40.02 12.02-40.02Q13.70-40.02 15.20-39.17L15.20-39.17Q16.25-39.62 18.07-40.17Q19.90-40.72 24.60-41.02L24.60-41.02L25.60-41.12Q25.95-41.42 26.15-41.62L26.15-41.62Q26.75-42.12 27.15-42.12Q27.55-42.12 27.55-41.62L27.55-41.62L27.55-41.27Q27.55-41.17 27.60-41.17ZM1.85-3.72L1.85-3.72Q0.55-3.72 0.47-3.87Q0.40-4.02 0.47-4.12Q0.55-4.22 0.92-4.17Q1.30-4.12 1.90-4.12L1.90-4.12Q4.95-4.12 8.35-6.55Q11.75-8.97 14.45-13.32Q17.15-17.67 18.40-22.62L18.40-22.62Q8.70-20.12 3.50-14.42L3.50-14.42Q1.25-12.02 0.05-9.77L0.05-9.77Q-1.25-7.42-1.25-5.87Q-1.25-4.32-0.45-3.37L-0.45-3.37Q0.55-2.17 2.20-2.17L2.20-2.17Q5.90-2.17 10.40-5.27L10.40-5.27Q16.20-9.32 21.10-23.22L21.10-23.22Q20.25-23.12 19.05-22.82L19.05-22.82Q17.75-17.72 14.95-13.22Q12.15-8.72 8.57-6.22Q5.00-3.72 1.85-3.72ZM19.95-29.17L19.95-29.17Q19.95-26.62 19.25-23.62L19.25-23.62L21.35-23.97Q24.45-33.42 25.05-39.92L25.05-39.92Q20.35-39.57 19.07-39.25Q17.80-38.92 16.35-38.37L16.35-38.37Q17.20-37.52 17.60-36.97L17.60-36.97Q19.95-33.87 19.95-29.17ZM32.50-31.22L32.50-31.22Q32.85-31.22 32.85-31.00Q32.85-30.77 32.25-30.07L32.25-30.07Q30.95-28.47 29.70-29.47L29.70-29.47Q29.50-29.62 29.65-29.77L29.65-29.77Q31.40-31.22 32.50-31.22ZM28.65-18.52L28.65-18.52Q28.65-17.02 29.55-17.02L29.55-17.02Q30.05-17.02 32.02-18.65Q34.00-20.27 34.15-20.42Q34.30-20.57 34.40-20.50Q34.50-20.42 34.50-20.35Q34.50-20.27 34.45-20.17L34.45-20.17Q33.70-18.92 31.30-17.17L31.30-17.17Q29.70-15.87 28.60-15.87L28.60-15.87Q26.90-15.87 26.90-18.77L26.90-18.77Q26.90-19.32 27.00-20.35Q27.10-21.37 28.60-26.67L28.60-26.67Q28.70-27.07 29.72-27.07Q30.75-27.07 30.75-26.50Q30.75-25.92 30.37-25.00Q30.00-24.07 29.50-23.97L29.50-23.97Q29.25-23.92 28.95-21.47Q28.65-19.02 28.65-18.52ZM38.10-22.97L38.10-22.97Q36.65-21.02 36.05-19.57Q35.45-18.12 35.45-17.42Q35.45-16.72 35.90-16.72L35.90-16.72Q37.25-16.72 41.35-22.72L41.35-22.72Q42.95-24.77 42.95-22.67L42.95-22.67Q42.85-21.37 42.85-20.47L42.85-20.47Q42.85-16.67 44.45-16.67L44.45-16.67Q46.15-16.67 48.60-19.42L48.60-19.42Q48.75-19.57 48.95-19.22L48.95-19.22Q48.80-18.87 47.92-18.00Q47.05-17.12 45.75-16.42Q44.45-15.72 43.77-15.72Q43.10-15.72 42.70-15.87L42.70-15.87Q40.85-16.52 40.85-20.97L40.85-20.97Q38.85-17.82 37.95-16.97L37.95-16.97Q36.55-15.67 35.65-15.67L35.65-15.67Q35.60-15.67 35.50-15.67L35.50-15.67Q33.85-15.92 33.85-17.90Q33.85-19.87 35.12-22.30Q36.40-24.72 38.50-26.67Q40.60-28.62 42.70-28.62L42.70-28.62Q43.70-28.62 44.65-28.12L44.65-28.12Q45.50-27.62 45.50-26.55Q45.50-25.47 44.55-25.32L44.55-25.32Q44.90-25.92 44.90-26.45Q44.90-26.97 44.40-27.22Q43.90-27.47 43.50-27.47L43.50-27.47Q41.35-27.47 38.10-22.97ZM54.35-20.27L54.35-20.27Q54.35-17.12 55.45-17.12L55.45-17.12Q56.95-17.12 59.55-20.37L59.55-20.37Q60.05-20.97 60.12-21.05Q60.20-21.12 60.30-20.82L60.30-20.82L60.35-20.72Q59.95-19.72 57.92-17.72Q55.90-15.72 54.50-15.72L54.50-15.72Q54.00-15.72 53.55-15.97L53.55-15.97Q52.30-16.57 52.30-20.37L52.30-20.37Q52.30-20.97 52.40-22.05Q52.50-23.12 52.60-23.22L52.60-23.22Q52.60-23.27 52.47-23.15Q52.35-23.02 52.07-22.70Q51.80-22.37 51.50-22.02Q51.20-21.67 50.80-21.12Q50.40-20.57 50.05-20.17L50.05-20.17Q49.15-19.17 48.65-18.37L48.65-18.37Q48.50-16.57 47.35-15.87L47.35-15.87Q47.10-15.72 46.97-15.72Q46.85-15.72 46.85-16.65Q46.85-17.57 47.50-21.42Q48.15-25.27 48.70-26.72L48.70-26.72Q47.15-26.32 47.05-25.47L47.05-25.47Q46.95-24.87 46.72-24.90Q46.50-24.92 46.50-25.32L46.50-25.32Q46.50-26.87 49.05-27.62L49.05-27.62Q50.35-31.87 52.85-36.02Q55.35-40.17 58.40-42.47L58.40-42.47Q61.45-44.87 64.60-44.87L64.60-44.87Q65.95-44.87 67.25-44.32L67.25-44.32Q69.20-43.47 70.00-41.47L70.00-41.47Q70.35-40.57 70.35-39.62L70.35-39.62Q70.35-36.72 67.50-34.57L67.50-34.57Q65.50-33.02 62.15-31.50Q58.80-29.97 56.67-29.25Q54.55-28.52 50.45-27.22L50.45-27.22Q49.65-25.07 48.75-19.22L48.75-19.22Q49.45-20.27 50.95-22.20Q52.45-24.12 52.90-24.72L52.90-24.72Q53.15-25.82 54.07-26.50Q55.00-27.17 55.00-26.22L55.00-26.22Q55.00-25.97 54.67-23.92Q54.35-21.87 54.35-20.27ZM69.55-40.92L69.55-40.92Q68.60-43.42 64.80-43.42L64.80-43.42Q61.25-43.42 57.85-40.97L57.85-40.97Q56.35-39.92 54.50-37.17L54.50-37.17Q53.45-35.57 52.72-33.70Q52.00-31.82 51.42-30.20Q50.85-28.57 50.65-28.07L50.65-28.07Q54.00-29.02 59.32-31.50Q64.65-33.97 67.20-35.95Q69.75-37.92 69.75-39.82L69.75-39.82Q69.75-40.37 69.55-40.92ZM71.05-16.72L71.05-16.72Q72.55-16.72 74.95-19.42L74.95-19.42L75.25-19.22Q75.15-18.92 74.25-18.00Q73.35-17.07 72.07-16.40Q70.80-15.72 70.12-15.72Q69.45-15.72 69.05-15.87L69.05-15.87Q68.15-16.17 67.62-17.62Q67.10-19.07 67.00-20.35Q66.90-21.62 66.95-21.67L66.95-21.67Q66.55-21.07 66.22-20.50Q65.90-19.92 65.45-19.27Q65.00-18.62 64.45-17.97L64.45-17.97Q62.70-15.67 61.45-15.67L61.45-15.67Q61.35-15.67 61.30-15.67L61.30-15.67Q59.40-15.97 59.40-18.37L59.40-18.37Q59.40-22.02 63.05-27.47L63.05-27.47Q63.35-27.92 63.95-27.92Q64.55-27.92 65.10-27.82L65.10-27.82Q65.85-27.52 65.80-27.27L65.80-27.27Q64.60-26.07 63.25-23.67L63.25-23.67Q60.95-19.47 60.95-17.72L60.95-17.72Q60.95-16.77 61.57-16.77Q62.20-16.77 63.02-17.50Q63.85-18.22 64.40-18.97Q64.95-19.72 65.40-20.35Q65.85-20.97 66.50-22.00Q67.15-23.02 67.50-23.52Q67.85-24.02 68.22-24.30Q68.60-24.57 68.82-24.35Q69.05-24.12 69.02-23.50Q69.00-22.87 69.00-22.42L69.00-22.42Q69.00-16.72 71.05-16.72ZM79.20-31.22L79.20-31.22Q79.55-31.22 79.55-31.00Q79.55-30.77 78.95-30.07L78.95-30.07Q77.65-28.47 76.40-29.47L76.40-29.47Q76.20-29.62 76.35-29.77L76.35-29.77Q78.10-31.22 79.20-31.22ZM75.35-18.52L75.35-18.52Q75.35-17.02 76.25-17.02L76.25-17.02Q76.75-17.02 78.72-18.65Q80.70-20.27 80.85-20.42Q81.00-20.57 81.10-20.50Q81.20-20.42 81.20-20.35Q81.20-20.27 81.15-20.17L81.15-20.17Q80.40-18.92 78.00-17.17L78.00-17.17Q76.40-15.87 75.30-15.87L75.30-15.87Q73.60-15.87 73.60-18.77L73.60-18.77Q73.60-19.32 73.70-20.35Q73.80-21.37 75.30-26.67L75.30-26.67Q75.40-27.07 76.42-27.07Q77.45-27.07 77.45-26.50Q77.45-25.92 77.07-25.00Q76.70-24.07 76.20-23.97L76.20-23.97Q75.95-23.92 75.65-21.47Q75.35-19.02 75.35-18.52ZM115.40-38.77L115.40-38.77Q102.65-39.62 100.65-39.62Q98.65-39.62 96.75-38.82Q94.85-38.02 94.70-36.32L94.70-36.32Q94.60-35.67 94.87-35.10Q95.15-34.52 95.15-34.47L95.15-34.47Q95.15-34.17 94.90-34.17L94.90-34.17L94.80-34.22Q94.20-35.22 94.20-35.82L94.20-35.82Q94.20-38.12 95.67-39.45Q97.15-40.77 98.37-41.02Q99.60-41.27 101.25-41.27Q102.90-41.27 105.62-40.95Q108.35-40.62 111.60-40.12Q114.85-39.62 116.40-39.42L116.40-39.42Q118.30-40.47 119.65-40.47Q121.00-40.47 121.00-39.92L121.00-39.92Q121.00-38.77 116.15-38.77L116.15-38.77Q113.15-36.52 109.15-32.07L109.15-32.07Q113.80-29.57 115.10-24.32L115.10-24.32Q115.50-22.77 115.50-21.32L115.50-21.32Q115.50-17.87 113.30-15.02L113.30-15.02Q115.65-15.37 117.10-17.37L117.10-17.37Q118.00-18.57 118.00-19.65Q118.00-20.72 117.70-21.27Q117.40-21.82 117.65-21.97L117.65-21.97Q117.85-21.97 117.90-21.92L117.90-21.92Q118.45-20.77 118.45-19.37Q118.45-17.97 117.10-16.37L117.10-16.37Q114.80-13.82 111.55-13.27L111.55-13.27Q108.75-11.07 104.60-10.42L104.60-10.42Q103.65-10.27 102.85-10.27L102.85-10.27Q100.45-10.27 99.27-11.55Q98.10-12.82 98.10-14.42L98.10-14.42Q98.10-15.17 98.35-16.02L98.35-16.02L96.15-16.77Q93.55-14.62 91.35-14.62L91.35-14.62Q90.70-14.62 90.10-14.77L90.10-14.77Q88.50-15.27 88.50-16.47Q88.50-17.67 90.35-18.27L90.35-18.27Q91.35-18.57 92.82-18.57Q94.30-18.57 95.70-18.27L95.70-18.27Q95.75-18.32 98.42-21.77Q101.10-25.22 102.40-26.77L102.40-26.77Q101.85-26.77 100.80-26.62L100.80-26.62Q99.00-24.37 96.80-22.27Q94.60-20.17 92.80-20.17L92.80-20.17Q92.05-20.17 91.40-20.57L91.40-20.57Q90.10-21.42 90.10-23.42L90.10-23.42Q90.10-27.82 94.35-30.82L94.35-30.82Q98.00-33.42 103.60-33.42L103.60-33.42Q104.65-33.42 105.90-33.17L105.90-33.17Q109.85-37.22 111.25-37.87L111.25-37.87Q111.75-38.12 111.75-37.95Q111.75-37.77 111.07-37.42Q110.40-37.07 106.35-33.12L106.35-33.12L107.80-32.67Q111.85-36.57 115.40-38.77ZM99.00-17.42L99.00-17.42Q101.20-20.87 105.65-20.87L105.65-20.87Q108.10-20.87 108.55-19.77L108.55-19.77Q108.65-19.52 108.40-19.52L108.40-19.52Q108.25-19.52 108.20-19.62L108.20-19.62Q107.65-20.47 105.80-20.47L105.80-20.47Q101.45-20.47 99.35-17.32L99.35-17.32Q106.55-14.92 108.75-14.92L108.75-14.92L111.20-14.77Q111.85-14.77 112.30-14.92L112.30-14.92Q114.75-17.87 114.75-21.57L114.75-21.57Q114.75-22.77 114.50-24.07L114.50-24.07Q113.40-29.37 108.90-31.72L108.90-31.72Q107.30-30.02 105.30-27.67L105.30-27.67Q108.45-27.57 110.55-27.07L110.55-27.07Q110.80-27.07 110.80-26.92L110.80-26.92Q110.75-26.82 110.55-26.82L110.55-26.82L110.40-26.82Q109.50-26.97 107.55-26.97Q105.60-26.97 104.60-26.92L104.60-26.92Q103.25-25.47 100.62-22.12Q98.00-18.77 97.30-17.92L97.30-17.92Q98.60-17.57 99.00-17.42ZM96.20-24.57L96.20-24.57Q96.10-24.42 96.35-23.97L96.35-23.97L96.30-23.92Q96.15-23.92 95.60-24.47L95.60-24.47Q95.35-24.92 95.40-25.42L95.40-25.42Q95.60-27.62 101.00-27.72L101.00-27.72Q104.40-31.67 105.55-32.87L105.55-32.87Q104.60-33.02 103.60-33.02L103.60-33.02Q96.55-33.02 92.70-28.42L92.70-28.42Q90.50-25.77 90.50-23.20Q90.50-20.62 92.40-20.62L92.40-20.62Q94.05-20.62 96.50-22.92L96.50-22.92Q97.65-24.02 99.85-26.42L99.85-26.42Q96.25-25.77 96.20-24.57ZM98.45-14.47L98.45-14.47Q98.45-13.02 99.60-11.85Q100.75-10.67 102.95-10.67L102.95-10.67Q103.70-10.67 104.55-10.82L104.55-10.82Q108.15-11.42 110.45-13.17L110.45-13.17Q110.15-13.17 109.20-13.17Q108.25-13.17 106.10-13.62Q103.95-14.07 102.85-14.45Q101.75-14.82 98.70-15.92L98.70-15.92Q98.45-15.17 98.45-14.47ZM94.80-17.12L94.80-17.12Q92.75-17.67 90.80-17.67Q88.85-17.67 88.85-16.72L88.85-16.72Q88.85-15.97 90.05-15.57L90.05-15.57Q90.70-15.32 91.35-15.32L91.35-15.32Q93.15-15.32 94.80-17.12ZM101.75-27.77L101.75-27.77L103.20-27.72Q105.65-30.52 107.50-32.37L107.50-32.37Q106.70-32.67 106.05-32.77L106.05-32.77Q104.85-31.52 101.75-27.77ZM124.10-20.27L124.10-20.27Q124.10-17.12 125.20-17.12L125.20-17.12Q126.70-17.12 129.30-20.37L129.30-20.37Q129.80-20.97 129.87-21.05Q129.95-21.12 130.05-20.82L130.05-20.82L130.10-20.72Q129.70-19.72 127.67-17.72Q125.65-15.72 124.25-15.72L124.25-15.72Q123.75-15.72 123.30-15.97L123.30-15.97Q122.05-16.57 122.05-20.37L122.05-20.37Q122.05-20.97 122.15-22.05Q122.25-23.12 122.35-23.22L122.35-23.22Q122.35-23.27 122.22-23.15Q122.10-23.02 121.82-22.70Q121.55-22.37 121.25-22.02Q120.95-21.67 120.55-21.12Q120.15-20.57 119.80-20.17L119.80-20.17Q118.90-19.17 118.40-18.37L118.40-18.37Q118.25-16.57 117.10-15.87L117.10-15.87Q116.85-15.72 116.72-15.72Q116.60-15.72 116.60-16.65Q116.60-17.57 117.25-21.42Q117.90-25.27 118.45-26.72L118.45-26.72Q116.90-26.32 116.80-25.47L116.80-25.47Q116.70-24.87 116.47-24.90Q116.25-24.92 116.25-25.32L116.25-25.32Q116.25-26.87 118.80-27.62L118.80-27.62Q120.10-31.87 122.60-36.02Q125.10-40.17 128.15-42.47L128.15-42.47Q131.20-44.87 134.35-44.87L134.35-44.87Q135.70-44.87 137.00-44.32L137.00-44.32Q138.95-43.47 139.75-41.47L139.75-41.47Q140.10-40.57 140.10-39.62L140.10-39.62Q140.10-36.72 137.25-34.57L137.25-34.57Q135.25-33.02 131.90-31.50Q128.55-29.97 126.42-29.25Q124.30-28.52 120.20-27.22L120.20-27.22Q119.40-25.07 118.50-19.22L118.50-19.22Q119.20-20.27 120.70-22.20Q122.20-24.12 122.65-24.72L122.65-24.72Q122.90-25.82 123.82-26.50Q124.75-27.17 124.75-26.22L124.75-26.22Q124.75-25.97 124.42-23.92Q124.10-21.87 124.10-20.27ZM139.30-40.92L139.30-40.92Q138.35-43.42 134.55-43.42L134.55-43.42Q131.00-43.42 127.60-40.97L127.60-40.97Q126.10-39.92 124.25-37.17L124.25-37.17Q123.20-35.57 122.47-33.70Q121.75-31.82 121.17-30.20Q120.60-28.57 120.40-28.07L120.40-28.07Q123.75-29.02 129.07-31.50Q134.40-33.97 136.95-35.95Q139.50-37.92 139.50-39.82L139.50-39.82Q139.50-40.37 139.30-40.92ZM133.40-22.97L133.40-22.97Q131.95-21.02 131.35-19.57Q130.75-18.12 130.75-17.42Q130.75-16.72 131.20-16.72L131.20-16.72Q132.55-16.72 136.65-22.72L136.65-22.72Q138.25-24.77 138.25-22.67L138.25-22.67Q138.15-21.37 138.15-20.47L138.15-20.47Q138.15-16.67 139.75-16.67L139.75-16.67Q141.45-16.67 143.90-19.42L143.90-19.42Q144.05-19.57 144.25-19.22L144.25-19.22Q144.10-18.87 143.22-18.00Q142.35-17.12 141.05-16.42Q139.75-15.72 139.07-15.72Q138.40-15.72 138.00-15.87L138.00-15.87Q136.15-16.52 136.15-20.97L136.15-20.97Q134.15-17.82 133.25-16.97L133.25-16.97Q131.85-15.67 130.95-15.67L130.95-15.67Q130.90-15.67 130.80-15.67L130.80-15.67Q129.15-15.92 129.15-17.90Q129.15-19.87 130.42-22.30Q131.70-24.72 133.80-26.67Q135.90-28.62 138.00-28.62L138.00-28.62Q139.00-28.62 139.95-28.12L139.95-28.12Q140.80-27.62 140.80-26.55Q140.80-25.47 139.85-25.32L139.85-25.32Q140.20-25.92 140.20-26.45Q140.20-26.97 139.70-27.22Q139.20-27.47 138.80-27.47L138.80-27.47Q136.65-27.47 133.40-22.97ZM155.05-16.92L155.05-16.92Q155.05-15.77 153.10-14.87L153.10-14.87Q152.40-14.57 151.70-14.57L151.70-14.57Q150.10-14.72 149.62-15.70Q149.15-16.67 149.15-17.37Q149.15-18.07 149.25-19.00Q149.35-19.92 149.62-21.25Q149.90-22.57 150.32-23.90Q150.75-25.22 150.75-25.27L150.75-25.27Q150.30-24.67 148.75-22.87L148.75-22.87Q144.75-18.42 144.37-17.37Q144.00-16.32 142.90-15.97L142.90-15.97Q142.30-15.77 142.30-16.22L142.30-16.22Q142.30-16.32 142.65-17.67L142.65-17.67Q143.75-21.87 143.75-24.37L143.75-24.37L143.70-25.72Q143.70-26.57 144.85-27.12L144.85-27.12Q145.35-27.37 145.75-27.37L145.75-27.37Q146.45-27.37 146.30-26.70Q146.15-26.02 145.80-24.17L145.80-24.17Q145.00-19.82 144.80-19.42L144.80-19.42Q147.75-22.12 151.15-27.42L151.15-27.42Q151.35-27.77 151.75-27.77L151.75-27.77Q153.20-27.77 153.35-27.27L153.35-27.27Q153.45-26.92 152.82-25.05Q152.20-23.17 151.90-21.97L151.90-21.97Q151.15-18.92 151.15-17.60Q151.15-16.27 151.35-15.72Q151.55-15.17 152.05-15.22L152.05-15.22Q153.50-15.42 154.85-17.07L154.85-17.07Q155.05-17.27 155.05-16.92ZM161.92-26.22Q160.45-24.97 159.02-23.00Q157.60-21.02 157.00-19.55Q156.40-18.07 156.40-17.40Q156.40-16.72 156.85-16.72L156.85-16.72Q158.20-16.72 162.30-22.72L162.30-22.72Q163.90-24.77 163.90-22.67L163.90-22.67Q163.85-22.32 163.85-21.77L163.85-21.77Q163.85-19.87 163.95-18.37L163.95-18.37Q165.30-19.27 166.52-20.37Q167.75-21.47 167.75-21.12Q167.75-20.77 167.10-20.07L167.10-20.07Q164.95-17.92 164.00-17.32L164.00-17.32Q164.20-15.77 164.20-13.45Q164.20-11.12 163.45-8.17L163.45-8.17Q162.35-3.67 159.35-0.42L159.35-0.42Q157.05 2.03 154.10 3.23L154.10 3.23Q152.15 4.13 149.90 4.13L149.90 4.13Q146.10 4.13 143.90 1.93L143.90 1.93Q142.40 0.28 142.40-1.57L142.40-1.57Q142.40-5.42 149.20-9.87L149.20-9.87Q152.20-11.77 156.45-14.07Q160.70-16.37 162.65-17.57L162.65-17.57Q162.00-20.77 161.80-20.97L161.80-20.97Q159.80-17.82 158.90-16.97L158.90-16.97Q157.40-15.57 156.45-15.67L156.45-15.67Q154.80-15.92 154.80-17.90Q154.80-19.87 156.07-22.30Q157.35-24.72 159.45-26.67Q161.55-28.62 163.65-28.62L163.65-28.62Q164.65-28.62 165.60-28.12L165.60-28.12Q166.45-27.62 166.45-26.55Q166.45-25.47 165.50-25.32L165.50-25.32Q165.85-25.92 165.85-26.45Q165.85-26.97 165.37-27.22Q164.90-27.47 164.45-27.47L164.45-27.47Q163.40-27.47 161.92-26.22ZM145.30-4.57L145.30-4.57Q143.30-2.47 143.30-1.07Q143.30 0.33 144.30 1.33L144.30 1.33Q145.70 2.73 148.80 2.73L148.80 2.73Q151.15 2.73 153.80 1.63L153.80 1.63Q157.05 0.38 159.45-2.17L159.45-2.17Q163.15-6.22 163.15-12.47L163.15-12.47Q163.15-14.47 162.80-16.67L162.80-16.67Q148.60-8.12 145.30-4.57Z"></path></g></g></svg>