<svg version="1.1" xmlns="http://www.w3.org/2000/svg" xmlns:xlink="http://www.w3.org/1999/xlink" width="79.25" height="49"><defs></defs><g transform="translate(-41.19998550415039,19.8699951171875)"><rect fill="rgb(255,255,255)" stroke="none" x="0" y="0" width="79.25" height="49" fill-opacity="0" transform="translate(41.19998550415039,-19.8699951171875)"></rect><g transform="translate(40.24998474121094,25) rotate(0,0,0) translate(-40.24998474121094,-25) matrix(1,0,0,1,40.24998474121094,25)"><path fill="rgb(0,0,0)" fill-opacity="1" d="M27.85-38.77L27.85-38.77Q15.10-39.62 13.10-39.62Q11.10-39.62 9.20-38.82Q7.30-38.02 7.15-36.32L7.15-36.32Q7.05-35.67 7.32-35.10Q7.60-34.52 7.60-34.47L7.60-34.47Q7.60-34.17 7.35-34.17L7.35-34.17L7.25-34.22Q6.65-35.22 6.65-35.82L6.65-35.82Q6.65-38.12 8.12-39.45Q9.60-40.77 10.82-41.02Q12.05-41.27 13.70-41.27Q15.35-41.27 18.07-40.95Q20.80-40.62 24.05-40.12Q27.30-39.62 28.85-39.42L28.85-39.42Q30.75-40.47 32.10-40.47Q33.45-40.47 33.45-39.92L33.45-39.92Q33.45-38.77 28.60-38.77L28.60-38.77Q25.60-36.52 21.60-32.07L21.60-32.07Q26.25-29.57 27.55-24.32L27.55-24.32Q27.95-22.77 27.95-21.32L27.95-21.32Q27.95-17.87 25.75-15.02L25.75-15.02Q28.10-15.37 29.55-17.37L29.55-17.37Q30.45-18.57 30.45-19.65Q30.45-20.72 30.15-21.27Q29.85-21.82 30.10-21.97L30.10-21.97Q30.30-21.97 30.35-21.92L30.35-21.92Q30.90-20.77 30.90-19.37Q30.90-17.97 29.55-16.37L29.55-16.37Q27.25-13.82 24.00-13.27L24.00-13.27Q21.20-11.07 17.05-10.42L17.05-10.42Q16.10-10.27 15.30-10.27L15.30-10.27Q12.90-10.27 11.72-11.55Q10.55-12.82 10.55-14.42L10.55-14.42Q10.55-15.17 10.80-16.02L10.80-16.02L8.60-16.77Q6.00-14.62 3.80-14.62L3.80-14.62Q3.15-14.62 2.55-14.77L2.55-14.77Q0.95-15.27 0.95-16.47Q0.95-17.67 2.80-18.27L2.80-18.27Q3.80-18.57 5.27-18.57Q6.75-18.57 8.15-18.27L8.15-18.27Q8.20-18.32 10.87-21.77Q13.55-25.22 14.85-26.77L14.85-26.77Q14.30-26.77 13.25-26.62L13.25-26.62Q11.45-24.37 9.25-22.27Q7.05-20.17 5.25-20.17L5.25-20.17Q4.50-20.17 3.85-20.57L3.85-20.57Q2.55-21.42 2.55-23.42L2.55-23.42Q2.55-27.82 6.80-30.82L6.80-30.82Q10.45-33.42 16.05-33.42L16.05-33.42Q17.10-33.42 18.35-33.17L18.35-33.17Q22.30-37.22 23.70-37.87L23.70-37.87Q24.20-38.12 24.20-37.95Q24.20-37.77 23.52-37.42Q22.85-37.07 18.80-33.12L18.80-33.12L20.25-32.67Q24.30-36.57 27.85-38.77ZM11.45-17.42L11.45-17.42Q13.65-20.87 18.10-20.87L18.10-20.87Q20.55-20.87 21.00-19.77L21.00-19.77Q21.10-19.52 20.85-19.52L20.85-19.52Q20.70-19.52 20.65-19.62L20.65-19.62Q20.10-20.47 18.25-20.47L18.25-20.47Q13.90-20.47 11.80-17.32L11.80-17.32Q19.00-14.92 21.20-14.92L21.20-14.92L23.65-14.77Q24.30-14.77 24.75-14.92L24.75-14.92Q27.20-17.87 27.20-21.57L27.20-21.57Q27.20-22.77 26.95-24.07L26.95-24.07Q25.85-29.37 21.35-31.72L21.35-31.72Q19.75-30.02 17.75-27.67L17.75-27.67Q20.90-27.57 23.00-27.07L23.00-27.07Q23.25-27.07 23.25-26.92L23.25-26.92Q23.20-26.82 23.00-26.82L23.00-26.82L22.85-26.82Q21.95-26.97 20.00-26.97Q18.05-26.97 17.05-26.92L17.05-26.92Q15.70-25.47 13.07-22.12Q10.45-18.77 9.75-17.92L9.75-17.92Q11.05-17.57 11.45-17.42ZM8.65-24.57L8.65-24.57Q8.55-24.42 8.80-23.97L8.80-23.97L8.75-23.92Q8.60-23.92 8.05-24.47L8.05-24.47Q7.80-24.92 7.85-25.42L7.85-25.42Q8.05-27.62 13.45-27.72L13.45-27.72Q16.85-31.67 18.00-32.87L18.00-32.87Q17.05-33.02 16.05-33.02L16.05-33.02Q9.00-33.02 5.15-28.42L5.15-28.42Q2.95-25.77 2.95-23.20Q2.95-20.62 4.85-20.62L4.85-20.62Q6.50-20.62 8.95-22.92L8.95-22.92Q10.10-24.02 12.30-26.42L12.30-26.42Q8.70-25.77 8.65-24.57ZM10.90-14.47L10.90-14.47Q10.90-13.02 12.05-11.85Q13.20-10.67 15.40-10.67L15.40-10.67Q16.15-10.67 17.00-10.82L17.00-10.82Q20.60-11.42 22.90-13.17L22.90-13.17Q22.60-13.17 21.65-13.17Q20.70-13.17 18.55-13.62Q16.40-14.07 15.30-14.45Q14.20-14.82 11.15-15.92L11.15-15.92Q10.90-15.17 10.90-14.47ZM7.25-17.12L7.25-17.12Q5.20-17.67 3.25-17.67Q1.30-17.67 1.30-16.72L1.30-16.72Q1.30-15.97 2.50-15.57L2.50-15.57Q3.15-15.32 3.80-15.32L3.80-15.32Q5.60-15.32 7.25-17.12ZM14.20-27.77L14.20-27.77L15.65-27.72Q18.10-30.52 19.95-32.37L19.95-32.37Q19.15-32.67 18.50-32.77L18.50-32.77Q17.30-31.52 14.20-27.77ZM36.55-20.27L36.55-20.27Q36.55-17.12 37.65-17.12L37.65-17.12Q39.15-17.12 41.75-20.37L41.75-20.37Q42.25-20.97 42.32-21.05Q42.40-21.12 42.50-20.82L42.50-20.82L42.55-20.72Q42.15-19.72 40.12-17.72Q38.10-15.72 36.70-15.72L36.70-15.72Q36.20-15.72 35.75-15.97L35.75-15.97Q34.50-16.57 34.50-20.37L34.50-20.37Q34.50-20.97 34.60-22.05Q34.70-23.12 34.80-23.22L34.80-23.22Q34.80-23.27 34.67-23.15Q34.55-23.02 34.27-22.70Q34.00-22.37 33.70-22.02Q33.40-21.67 33.00-21.12Q32.60-20.57 32.25-20.17L32.25-20.17Q31.35-19.17 30.85-18.37L30.85-18.37Q30.70-16.57 29.55-15.87L29.55-15.87Q29.30-15.72 29.17-15.72Q29.05-15.72 29.05-16.65Q29.05-17.57 29.70-21.42Q30.35-25.27 30.90-26.72L30.90-26.72Q29.35-26.32 29.25-25.47L29.25-25.47Q29.15-24.87 28.92-24.90Q28.70-24.92 28.70-25.32L28.70-25.32Q28.70-26.87 31.25-27.62L31.25-27.62Q32.55-31.87 35.05-36.02Q37.55-40.17 40.60-42.47L40.60-42.47Q43.65-44.87 46.80-44.87L46.80-44.87Q48.15-44.87 49.45-44.32L49.45-44.32Q51.40-43.47 52.20-41.47L52.20-41.47Q52.55-40.57 52.55-39.62L52.55-39.62Q52.55-36.72 49.70-34.57L49.70-34.57Q47.70-33.02 44.35-31.50Q41.00-29.97 38.87-29.25Q36.75-28.52 32.65-27.22L32.65-27.22Q31.85-25.07 30.95-19.22L30.95-19.22Q31.65-20.27 33.15-22.20Q34.65-24.12 35.10-24.72L35.10-24.72Q35.35-25.82 36.27-26.50Q37.20-27.17 37.20-26.22L37.20-26.22Q37.20-25.97 36.87-23.92Q36.55-21.87 36.55-20.27ZM51.75-40.92L51.75-40.92Q50.80-43.42 47.00-43.42L47.00-43.42Q43.45-43.42 40.05-40.97L40.05-40.97Q38.55-39.92 36.70-37.17L36.70-37.17Q35.65-35.57 34.92-33.70Q34.20-31.82 33.62-30.20Q33.05-28.57 32.85-28.07L32.85-28.07Q36.20-29.02 41.52-31.50Q46.85-33.97 49.40-35.95Q51.95-37.92 51.95-39.82L51.95-39.82Q51.95-40.37 51.75-40.92ZM45.85-22.97L45.85-22.97Q44.40-21.02 43.80-19.57Q43.20-18.12 43.20-17.42Q43.20-16.72 43.65-16.72L43.65-16.72Q45.00-16.72 49.10-22.72L49.10-22.72Q50.70-24.77 50.70-22.67L50.70-22.67Q50.60-21.37 50.60-20.47L50.60-20.47Q50.60-16.67 52.20-16.67L52.20-16.67Q53.90-16.67 56.35-19.42L56.35-19.42Q56.50-19.57 56.70-19.22L56.70-19.22Q56.55-18.87 55.67-18.00Q54.80-17.12 53.50-16.42Q52.20-15.72 51.52-15.72Q50.85-15.72 50.45-15.87L50.45-15.87Q48.60-16.52 48.60-20.97L48.60-20.97Q46.60-17.82 45.70-16.97L45.70-16.97Q44.30-15.67 43.40-15.67L43.40-15.67Q43.35-15.67 43.25-15.67L43.25-15.67Q41.60-15.92 41.60-17.90Q41.60-19.87 42.87-22.30Q44.15-24.72 46.25-26.67Q48.35-28.62 50.45-28.62L50.45-28.62Q51.45-28.62 52.40-28.12L52.40-28.12Q53.25-27.62 53.25-26.55Q53.25-25.47 52.30-25.32L52.30-25.32Q52.65-25.92 52.65-26.45Q52.65-26.97 52.15-27.22Q51.65-27.47 51.25-27.47L51.25-27.47Q49.10-27.47 45.85-22.97ZM67.50-16.92L67.50-16.92Q67.50-15.77 65.55-14.87L65.55-14.87Q64.85-14.57 64.15-14.57L64.15-14.57Q62.55-14.72 62.07-15.70Q61.60-16.67 61.60-17.37Q61.60-18.07 61.70-19.00Q61.80-19.92 62.07-21.25Q62.35-22.57 62.77-23.90Q63.20-25.22 63.20-25.27L63.20-25.27Q62.75-24.67 61.20-22.87L61.20-22.87Q57.20-18.42 56.82-17.37Q56.45-16.32 55.35-15.97L55.35-15.97Q54.75-15.77 54.75-16.22L54.75-16.22Q54.75-16.32 55.10-17.67L55.10-17.67Q56.20-21.87 56.20-24.37L56.20-24.37L56.15-25.72Q56.15-26.57 57.30-27.12L57.30-27.12Q57.80-27.37 58.20-27.37L58.20-27.37Q58.90-27.37 58.75-26.70Q58.60-26.02 58.25-24.17L58.25-24.17Q57.45-19.82 57.25-19.42L57.25-19.42Q60.20-22.12 63.60-27.42L63.60-27.42Q63.80-27.77 64.20-27.77L64.20-27.77Q65.65-27.77 65.80-27.27L65.80-27.27Q65.90-26.92 65.27-25.05Q64.65-23.17 64.35-21.97L64.35-21.97Q63.60-18.92 63.60-17.60Q63.60-16.27 63.80-15.72Q64.00-15.17 64.50-15.22L64.50-15.22Q65.95-15.42 67.30-17.07L67.30-17.07Q67.50-17.27 67.50-16.92ZM74.37-26.22Q72.90-24.97 71.47-23.00Q70.05-21.02 69.45-19.55Q68.85-18.07 68.85-17.40Q68.85-16.72 69.30-16.72L69.30-16.72Q70.65-16.72 74.75-22.72L74.75-22.72Q76.35-24.77 76.35-22.67L76.35-22.67Q76.30-22.32 76.30-21.77L76.30-21.77Q76.30-19.87 76.40-18.37L76.40-18.37Q77.75-19.27 78.97-20.37Q80.20-21.47 80.20-21.12Q80.20-20.77 79.55-20.07L79.55-20.07Q77.40-17.92 76.45-17.32L76.45-17.32Q76.65-15.77 76.65-13.45Q76.65-11.12 75.90-8.17L75.90-8.17Q74.80-3.67 71.80-0.42L71.80-0.42Q69.50 2.03 66.55 3.23L66.55 3.23Q64.60 4.13 62.35 4.13L62.35 4.13Q58.55 4.13 56.35 1.93L56.35 1.93Q54.85 0.28 54.85-1.57L54.85-1.57Q54.85-5.42 61.65-9.87L61.65-9.87Q64.65-11.77 68.90-14.07Q73.15-16.37 75.10-17.57L75.10-17.57Q74.45-20.77 74.25-20.97L74.25-20.97Q72.25-17.82 71.35-16.97L71.35-16.97Q69.85-15.57 68.90-15.67L68.90-15.67Q67.25-15.92 67.25-17.90Q67.25-19.87 68.52-22.30Q69.80-24.72 71.90-26.67Q74.00-28.62 76.10-28.62L76.10-28.62Q77.10-28.62 78.05-28.12L78.05-28.12Q78.90-27.62 78.90-26.55Q78.90-25.47 77.95-25.32L77.95-25.32Q78.30-25.92 78.30-26.45Q78.30-26.97 77.82-27.22Q77.35-27.47 76.90-27.47L76.90-27.47Q75.85-27.47 74.37-26.22ZM57.75-4.57L57.75-4.57Q55.75-2.47 55.75-1.07Q55.75 0.33 56.75 1.33L56.75 1.33Q58.15 2.73 61.25 2.73L61.25 2.73Q63.60 2.73 66.25 1.63L66.25 1.63Q69.50 0.38 71.90-2.17L71.90-2.17Q75.60-6.22 75.60-12.47L75.60-12.47Q75.60-14.47 75.25-16.67L75.25-16.67Q61.05-8.12 57.75-4.57Z"></path></g></g></svg>